HIERARCHY
ROOT Hips
{
  OFFSET 47.716 99.1601 34.127
  CHANNELS 6 Xposition Yposition Zposition Zrotation Xrotation Yrotation
  JOINT spine
  {
    OFFSET 0 8.30104 0.477351
    CHANNELS 3 Zrotation Xrotation Yrotation
    JOINT spine1
    {
      OFFSET 0 10.4565 0
      CHANNELS 3 Zrotation Xrotation Yrotation
      JOINT spine2
      {
        OFFSET 0 10.0192 0
        CHANNELS 3 Zrotation Xrotation Yrotation
        JOINT Neck
        {
          OFFSET 0 25.7235 1.22641
          CHANNELS 3 Zrotation Xrotation Yrotation
          JOINT Head
          {
            OFFSET 0 7.77175 0
            CHANNELS 3 Zrotation Xrotation Yrotation
            End Site
            {
              OFFSET 0 18.812 -6.20394
            }
          }
        }
        JOINT RightShoulder
        {
          OFFSET -4.2188 10.82 -0.587439
          CHANNELS 3 Zrotation Xrotation Yrotation
          JOINT RightArm
          {
            OFFSET 0 14.1914 0
            CHANNELS 3 Zrotation Xrotation Yrotation
            JOINT RightArmRoll
            {
              OFFSET 0 7.16409 0
              CHANNELS 3 Zrotation Xrotation Yrotation
              JOINT RightForeArm
              {
                OFFSET 0 20.8665 0
                CHANNELS 3 Zrotation Xrotation Yrotation
                JOINT RightForeArmRoll
                {
                  OFFSET 0 8.03921 0
                  CHANNELS 3 Zrotation Xrotation Yrotation
                  JOINT RightHand
                  {
                    OFFSET 0 16.133 0
                    CHANNELS 3 Zrotation Xrotation Yrotation
                    End Site
                    {
                      OFFSET 0 0 0
                    }
                  }
                }
              }
            }
          }
        }
        JOINT LeftShoulder
        {
          OFFSET 4.2188 10.82 -0.587439
          CHANNELS 3 Zrotation Xrotation Yrotation
          JOINT LeftArm
          {
            OFFSET 0 14.1914 0
            CHANNELS 3 Zrotation Xrotation Yrotation
            JOINT LeftArmRoll
            {
              OFFSET 0 7.16409 0
              CHANNELS 3 Zrotation Xrotation Yrotation
              JOINT LeftForeArm
              {
                OFFSET 0 20.8665 0
                CHANNELS 3 Zrotation Xrotation Yrotation
                JOINT LeftForeArmRoll
                {
                  OFFSET 0 8.03921 0
                  CHANNELS 3 Zrotation Xrotation Yrotation
                  JOINT LeftHand
                  {
                    OFFSET 0 16.133 0
                    CHANNELS 3 Zrotation Xrotation Yrotation
                    End Site
                    {
                      OFFSET 0 0 0
                    }
                  }
                }
              }
            }
          }
        }
      }
    }
  }
  JOINT RightUpLeg
  {
    OFFSET -7.35773 -1.34921 -1.13182
    CHANNELS 3 Zrotation Xrotation Yrotation
    JOINT RightUpLegRoll
    {
      OFFSET 0 18.9168 0
      CHANNELS 3 Zrotation Xrotation Yrotation
      JOINT RightLeg
      {
        OFFSET 0 -23.4256 0
        CHANNELS 3 Zrotation Xrotation Yrotation
        JOINT RightLegRoll
        {
          OFFSET 0 23.5023 0
          CHANNELS 3 Zrotation Xrotation Yrotation
          JOINT RightFoot
          {
            OFFSET 0 19.5617 0
            CHANNELS 3 Zrotation Xrotation Yrotation
            JOINT RightToeBase
            {
              OFFSET 0 16.3526 0
              CHANNELS 3 Zrotation Xrotation Yrotation
              End Site
              {
                OFFSET 0.00693125 7.91943 -0.912837
              }
            }
          }
        }
      }
    }
  }
  JOINT LeftUpLeg
  {
    OFFSET 7.35773 -1.34921 -1.13182
    CHANNELS 3 Zrotation Xrotation Yrotation
    JOINT LeftUpLegRoll
    {
      OFFSET 0 18.9169 0
      CHANNELS 3 Zrotation Xrotation Yrotation
      JOINT LeftLeg
      {
        OFFSET 0 23.4255 0
        CHANNELS 3 Zrotation Xrotation Yrotation
        JOINT LeftLegRoll
        {
          OFFSET 0 23.7195 0
          CHANNELS 3 Zrotation Xrotation Yrotation
          JOINT LeftFoot
          {
            OFFSET 0 19.3444 0
            CHANNELS 3 Zrotation Xrotation Yrotation
            JOINT LeftToeBase
            {
              OFFSET 0 16.3526 0
              CHANNELS 3 Zrotation Xrotation Yrotation
              End Site
              {
                OFFSET -0.0310629 7.91943 -0.912837
              }
            }
          }
        }
      }
    }
  }
}
MOTION
Frames: 10
Frame Time: 0.00208333
49.4985 51.5008 0.212204 -0.358609 -28.5957 0.0411225 0.225195 3.45724 -0.0282981 0.466236 10.889 -0.113425 0.469061 12.534 -0.121584 -1.74733 25.5483 -0.665525 -0.600351 -3.41814 -1.39275 74.3159 -1.56295 -2.50022 88.2316 10.4183 -16.8209 -1.14419e-005 -2.49249e-007 1.48069e-006 56.8445 80.5358 -55.0041 5.24743e-007 4.43459e-006 -3.00802 8.02935 -4.95106 0.697555 -64.7298 0.301939 0.566147 -95.5151 5.82645 11.1735 -2.82274e-014 4.77083e-015 -1.59028e-015 -23.6034 72.2962 20.3432 8.83645e-006 1.26645e-005 2.99999 -8.02944 -4.95098 -0.697531 144.302 61.1043 40.5118 180 1.52533e-005 178.465 -19.6723 76.353 22.4832 -1.24097e-006 -7.34254e-006 2.0527 -27.4124 71.9538 24.1205 8.13603 25.2327 -3.48213 -137.752 59.162 -46.7728 4.54188e-006 -4.6773e-006 -1.67092 161.235 -72.8651 155.813 -1.60808e-006 -3.04593e-006 -2.80244 30.4213 73.9856 -27.4058 -8.22936 26.7155 3.52792 
49.5018 51.4978 0.212082 -0.361129 -28.5881 0.0426064 0.224464 3.45503 -0.0289784 0.464556 10.8867 -0.113687 0.467395 12.5317 -0.121826 -1.71807 25.5876 -0.678367 -0.603341 -3.44265 -1.39567 74.3395 -1.55998 -2.50109 88.2503 10.4395 -16.7768 -1.14419e-005 -2.49249e-007 1.48069e-006 56.7568 80.5157 -54.9101 5.24743e-007 4.43459e-006 -3.00802 8.02935 -4.95106 0.697555 -64.7319 0.315466 0.559035 -95.5557 5.8231 11.11 -1.53064e-014 1.59028e-015 -1.59028e-015 -23.5604 72.2575 20.2995 8.83645e-006 1.26645e-005 2.99999 -8.02944 -4.95098 -0.697531 144.289 61.1097 40.5265 180 1.52533e-005 178.465 -19.6636 76.3492 22.4741 -1.24097e-006 -7.34254e-006 2.05272 -27.4162 71.9561 24.125 8.13603 25.2327 -3.48213 -137.749 59.173 -46.7738 4.54188e-006 -4.6773e-006 -1.6709 161.24 -72.8604 155.817 -1.60808e-006 -3.04593e-006 -2.80245 30.427 73.9912 -27.4143 -8.22915 26.7127 3.52779 
49.501 51.4973 0.214455 -0.363839 -28.5801 0.0442872 0.223693 3.45265 -0.0297372 0.462801 10.8841 -0.114034 0.465655 12.5292 -0.122154 -1.68656 25.6259 -0.691978 -0.60776 -3.46604 -1.39869 74.3644 -1.55706 -2.50209 88.2679 10.4598 -16.7317 -1.14419e-005 -2.49249e-007 1.48069e-006 56.672 80.496 -54.8194 5.24743e-007 4.43459e-006 -3.00802 8.02935 -4.95106 0.697555 -64.7329 0.328783 0.551899 -95.597 5.81897 11.0467 -5.76476e-015 0 3.18055e-015 -23.5172 72.2181 20.2553 8.83645e-006 1.26645e-005 2.99999 -8.02944 -4.95098 -0.697531 144.275 61.1153 40.5423 180 1.52533e-005 178.465 -19.6543 76.3453 22.4643 -1.24097e-006 -7.34254e-006 2.05275 -27.42 71.9586 24.1297 8.13603 25.2327 -3.48213 -137.747 59.1846 -46.7751 4.54188e-006 -4.6773e-006 -1.67086 161.244 -72.8554 155.821 -1.60808e-006 -3.04593e-006 -2.80247 30.4337 73.9973 -27.4235 -8.22892 26.7095 3.52764 
49.5046 51.4985 0.218488 -0.366681 -28.5717 0.0461057 0.222893 3.45015 -0.0305511 0.460992 10.8814 -0.114443 0.463862 12.5265 -0.122542 -1.65345 25.6637 -0.706132 -0.613181 -3.48866 -1.40178 74.3902 -1.55416 -2.5032 88.2847 10.4794 -16.6859 -1.14419e-005 -2.49249e-007 1.48069e-006 56.5895 80.4766 -54.7312 5.24743e-007 4.43459e-006 -3.00802 8.02935 -4.95106 0.697555 -64.7331 0.341953 0.544745 -95.6389 5.81427 10.9835 -4.37326e-015 -1.59028e-015 -0 -23.4741 72.1783 20.211 8.83645e-006 1.26645e-005 2.99999 -8.02944 -4.95098 -0.697531 144.261 61.121 40.5588 180 1.52533e-005 178.465 -19.6444 76.3413 22.4538 -1.24097e-006 -7.34254e-006 2.05279 -27.4241 71.9611 24.1346 8.13603 25.2327 -3.48213 -137.744 59.1965 -46.7767 4.54188e-006 -4.6773e-006 -1.67083 161.249 -72.8504 155.825 -1.60808e-006 -3.04593e-006 -2.80249 30.4409 74.0038 -27.4334 -8.22868 26.7062 3.52747 
49.4999 51.5015 0.216104 -0.3696 -28.5632 0.0480028 0.222077 3.44757 -0.0313963 0.459152 10.8786 -0.114886 0.46204 12.5237 -0.122965 -1.61943 25.7011 -0.720599 -0.619176 -3.51084 -1.40492 74.4166 -1.55127 -2.50436 88.3012 10.4986 -16.6398 -1.14419e-005 -2.49249e-007 1.48069e-006 56.5084 80.4573 -54.6446 5.24743e-007 4.43459e-006 -3.00802 8.02935 -4.95106 0.697555 -64.7329 0.35504 0.537582 -95.6811 5.80925 10.9205 -2.98177e-015 3.18055e-015 4.77083e-015 -23.4311 72.1382 20.1667 8.83645e-006 1.26645e-005 2.99999 -8.02944 -4.95098 -0.697531 144.247 61.1267 40.5758 180 1.52533e-005 178.465 -19.6342 76.3372 22.4431 -1.24097e-006 -7.34254e-006 2.05283 -27.4282 71.9637 24.1396 8.13603 25.2327 -3.48213 -137.741 59.2087 -46.7783 4.54188e-006 -4.6773e-006 -1.67078 161.254 -72.8453 155.83 -1.60808e-006 -3.04593e-006 -2.80251 30.4485 74.0104 -27.4435 -8.22842 26.7027 3.52729 
49.5009 51.5035 0.215745 -0.372539 -28.5546 0.0499193 0.221256 3.44498 -0.0322495 0.457305 10.8758 -0.115338 0.46021 12.5209 -0.123396 -1.58516 25.7384 -0.735152 -0.625315 -3.53291 -1.40806 74.4431 -1.54839 -2.50553 88.3175 10.5177 -16.5935 -1.14419e-005 -2.49249e-007 1.48069e-006 56.4278 80.4381 -54.5585 5.24743e-007 4.43459e-006 -3.00802 8.02935 -4.95106 0.697555 -64.7326 0.368106 0.530416 -95.7234 5.80414 10.8574 -6.36111e-015 0 -0 -23.3883 72.098 20.1225 8.83645e-006 1.26645e-005 2.99999 -8.02944 -4.95098 -0.697531 144.232 61.1326 40.5929 180 1.52533e-005 178.465 -19.624 76.3331 22.4323 -1.24097e-006 -7.34254e-006 2.05287 -27.4323 71.9663 24.1446 8.13603 25.2327 -3.48213 -137.737 59.2209 -46.78 4.54188e-006 -4.6773e-006 -1.67074 161.259 -72.8402 155.834 -1.60808e-006 -3.04593e-006 -2.80253 30.4562 74.017 -27.4538 -8.22816 26.6991 3.52711 
49.5082 51.4965 0.215623 -0.37544 -28.5461 0.051796 0.220444 3.44243 -0.0330869 0.455473 10.873 -0.115772 0.458394 12.5181 -0.12381 -1.55132 25.7758 -0.749561 -0.631172 -3.5552 -1.41119 74.4694 -1.5455 -2.50667 88.3339 10.5371 -16.5474 -1.14419e-005 -2.49249e-007 1.48069e-006 56.3472 80.4188 -54.4723 5.24743e-007 4.43459e-006 -3.00802 8.02935 -4.95106 0.697555 -64.7325 0.381214 0.523255 -95.7655 5.79917 10.7943 -7.7526e-015 -1.59028e-015 1.59028e-015 -23.3457 72.0579 20.0786 8.83645e-006 1.26645e-005 2.99999 -8.02944 -4.95098 -0.697531 144.218 61.1383 40.6098 180 1.52533e-005 178.465 -19.614 76.3291 22.4217 -1.24097e-006 -7.34254e-006 2.05291 -27.4364 71.9688 24.1495 8.13603 25.2327 -3.48213 -137.734 59.233 -46.7817 4.54188e-006 -4.6773e-006 -1.6707 161.264 -72.8351 155.838 -1.60808e-006 -3.04593e-006 -2.80256 30.4638 74.0235 -27.4639 -8.22791 26.6957 3.52694 
49.4989 51.4942 0.214435 -0.378247 -28.5378 0.053574 0.219652 3.43996 -0.033885 0.45368 10.8703 -0.116163 0.456617 12.5154 -0.12418 -1.51858 25.8138 -0.7636 -0.636317 -3.57804 -1.41426 74.495 -1.5426 -2.50775 88.3509 10.5569 -16.5018 -1.14419e-005 -2.49249e-007 1.48069e-006 56.2655 80.3992 -54.3849 5.24743e-007 4.43459e-006 -3.00802 8.02935 -4.95106 0.697555 -64.7329 0.394426 0.516106 -95.8073 5.7946 10.7311 3.18055e-015 0 3.18055e-015 -23.3034 72.0181 20.0352 8.83645e-006 1.26645e-005 2.99999 -8.02944 -4.95098 -0.697531 144.203 61.144 40.6262 180 1.52533e-005 178.465 -19.6043 76.3251 22.4114 -1.24097e-006 -7.34254e-006 2.05294 -27.4404 71.9713 24.1544 8.13603 25.2327 -3.48213 -137.732 59.2449 -46.7832 4.54188e-006 -4.6773e-006 -1.67066 161.268 -72.8301 155.842 -1.60808e-006 -3.04593e-006 -2.80258 30.4709 74.0299 -27.4736 -8.22767 26.6924 3.52677 
49.4786 51.5227 0.212745 -0.380903 -28.5299 0.0551941 0.218892 3.43763 -0.0346202 0.451946 10.8679 -0.116485 0.454899 12.513 -0.124483 -1.48762 25.8524 -0.777038 -0.640323 -3.60176 -1.41725 74.5195 -1.53966 -2.50871 88.3686 10.5774 -16.457 -1.14419e-005 -2.49249e-007 1.48069e-006 56.1822 80.3793 -54.2955 5.24743e-007 4.43459e-006 -3.00802 8.02935 -4.95106 0.697555 -64.7342 0.407807 0.508977 -95.8485 5.79064 10.6678 -5.36719e-015 7.95139e-016 3.18055e-015 -23.2616 71.9789 19.9924 8.83645e-006 1.26645e-005 2.99999 -8.02944 -4.95098 -0.697531 144.19 61.1495 40.6417 180 1.52533e-005 178.465 -19.5951 76.3212 22.4018 -1.24097e-006 -7.34254e-006 2.05297 -27.4443 71.9737 24.1591 8.13603 25.2327 -3.48213 -137.729 59.2563 -46.7844 4.54188e-006 -4.6773e-006 -1.67063 161.273 -72.8252 155.846 -1.60808e-006 -3.04593e-006 -2.80259 30.4773 74.0359 -27.4827 -8.22745 26.6893 3.52662 
49.487 51.5171 0.2167 -0.383351 -28.5225 0.0565972 0.218177 3.43549 -0.0352691 0.450297 10.8657 -0.116712 0.453263 12.5107 -0.124691 -1.45909 25.892 -0.789648 -0.642762 -3.62671 -1.42013 74.5425 -1.53668 -2.50952 88.3874 10.5991 -16.4133 -1.14419e-005 -2.49249e-007 1.48069e-006 56.0965 80.3588 -54.2034 5.24743e-007 4.43459e-006 -3.00802 8.02935 -4.95106 0.697555 -64.7368 0.421417 0.501876 -95.8889 5.78754 10.6042 -7.55382e-015 2.38542e-015 3.18055e-015 -23.2202 71.9404 19.9504 8.83645e-006 1.26645e-005 2.99999 -8.02944 -4.95098 -0.697531 144.178 61.1547 40.656 180 1.52533e-005 178.465 -19.5868 76.3174 22.3931 -1.24097e-006 -7.34254e-006 2.05299 -27.4479 71.9761 24.1635 8.13603 25.2327 -3.48213 -137.727 59.2671 -46.7853 4.54188e-006 -4.6773e-006 -1.67061 161.277 -72.8205 155.85 -1.60808e-006 -3.04593e-006 -2.8026 30.4827 74.0413 -27.491 -8.22725 26.6866 3.5265 
